<svg width="26" height="18" viewBox="0 0 26 18" fill="none" xmlns="http://www.w3.org/2000/svg">
<path d="M3.57264 0.764357C2.89021 -0.104186 1.6329 -0.255064 0.764357 0.427363C-0.104186 1.10979 -0.255064 2.3671 0.427363 3.23564L3.57264 0.764357ZM13 16L11.4274 17.2356C11.8065 17.7182 12.3863 18 13 18C13.6137 18 14.1935 17.7182 14.5726 17.2356L13 16ZM25.5726 3.23564C26.2551 2.3671 26.1042 1.10979 25.2356 0.427363C24.3671 -0.255063 23.1098 -0.104186 22.4274 0.764357L25.5726 3.23564ZM0.427363 3.23564L11.4274 17.2356L14.5726 14.7644L3.57264 0.764357L0.427363 3.23564ZM14.5726 17.2356L25.5726 3.23564L22.4274 0.764357L11.4274 14.7644L14.5726 17.2356Z" fill="#4180BB"/>
</svg>
