<?xml version="1.0" encoding="UTF-8"?>
<svg width="24px" height="25px" viewBox="0 0 24 25" version="1.1" xmlns="http://www.w3.org/2000/svg" xmlns:xlink="http://www.w3.org/1999/xlink">
    <title>29A64925-0C7F-4793-B811-0B2D9AE14EF0</title>
    <defs>
        <filter id="filter-1">
            <feColorMatrix in="SourceGraphic" type="matrix" values="0 0 0 0 0.835294 0 0 0 0 0.239216 0 0 0 0 0.058824 0 0 0 1.000000 0"></feColorMatrix>
        </filter>
    </defs>
    <g id="Desktop-1920px" stroke="none" stroke-width="1" fill="none" fill-rule="evenodd">
        <g id="Service-Form-Filled" transform="translate(-757.000000, -6198.000000)">
            <g id="Desktop/Form" transform="translate(0.000000, 5685.980747)">
                <g id="Group-4" transform="translate(348.000000, 239.986410)">
                    <g id="Group-46" transform="translate(409.000000, 271.678369)">
                        <g id="attach" transform="translate(0.000000, 1.019253)" filter="url(#filter-1)">
                            <g>
                                <path d="M21.7527629,2.3153442 C18.7616186,-0.771781399 13.894347,-0.771781399 10.9026871,2.3153442 L1.60230079,11.9136663 C-0.534217445,14.1188804 -0.53407682,17.7069492 1.60258204,19.9120182 C2.67100522,21.0146736 4.07397568,21.5659771 5.47750864,21.565832 C6.88066661,21.5656869 8.28438707,21.0145285 9.35262275,19.9120182 L17.8776957,11.1135602 C18.4987902,10.4726626 18.8408843,9.62050295 18.8409781,8.71411274 C18.8409781,7.80767415 18.4990245,6.95556285 17.8778363,6.31447174 C16.5957097,4.991411 14.5095822,4.99145937 13.2277369,6.31471362 L7.65265192,12.068279 C7.22463577,12.5099604 7.22463577,13.2261809 7.65255817,13.667959 C8.08052744,14.1097856 8.77451267,14.1096404 9.20257569,13.667959 L14.7777075,7.91434528 C15.2050674,7.47329279 15.9003182,7.47319603 16.327725,7.91424853 C16.5347253,8.12788107 16.6487723,8.41195042 16.6487723,8.71406436 C16.6487723,9.01617831 16.5347721,9.3001509 16.327725,9.51388019 L7.80260523,18.3122897 C6.52052554,19.6353021 4.43458549,19.6354956 3.15259955,18.3123865 C1.87061362,16.989229 1.87051987,14.8363587 3.15236518,13.5132012 L12.4527047,3.91502424 C14.589551,1.70981013 18.0662271,1.70981013 20.2027454,3.91502424 C21.2378873,4.98318692 21.8079817,6.40348529 21.8079817,7.91415178 C21.8079817,9.42481826 21.2378404,10.8451166 20.2027454,11.9133761 L10.9025465,21.5118433 C10.4745772,21.9535731 10.4745772,22.6697452 10.9026403,23.1115234 C11.1166718,23.3324608 11.3971721,23.4428086 11.6776256,23.4428086 C11.9581259,23.4428086 12.2386263,23.3323157 12.4526578,23.1115234 L21.752716,13.5131045 C23.2019053,12.0176284 24,10.0292397 24,7.91420015 C24,5.79920902 23.2019053,3.81082033 21.7527629,2.3153442 Z" id="Path" fill="#000000" fill-rule="nonzero"></path>
                            </g>
                        </g>
                    </g>
                </g>
            </g>
        </g>
    </g>
</svg>