<?xml version="1.0" encoding="UTF-8"?>
<svg width="60px" height="60px" viewBox="0 0 60 60" version="1.1" xmlns="http://www.w3.org/2000/svg" xmlns:xlink="http://www.w3.org/1999/xlink">
    <title>7562F37D-572B-4CF8-BB41-6586A64A1255</title>
    <g id="Desktop-1920px" stroke="none" stroke-width="1" fill="none" fill-rule="evenodd">
        <g id="Service-Form-Filled" transform="translate(-348.000000, -3876.000000)">
            <g id="Group-17" transform="translate(0.000000, 3731.000000)">
                <g id="Experience" transform="translate(348.000000, 145.000000)">
                    <circle id="Oval-Copy-2" fill="#DF530F" cx="30" cy="30" r="30"></circle>
                    <g id="finish" transform="translate(10.000000, 10.000000)" fill-rule="nonzero" stroke="#FFFFFF" stroke-width="2.4">
                        <path d="M1.2598922,8.26162933 C1.70771219,7.99570446 1.86167003,7.98577534 1.99124068,8.05860027 C2.09841411,8.11883687 2.17747597,8.21894445 2.21060503,8.33727179 L2.21060503,8.33727179 L10.6366538,38.4296366 C10.6461974,38.4637216 10.640924,38.4984215 10.6248059,38.526985 C10.6081629,38.5564789 10.5800926,38.5793818 10.5449961,38.5891721 L10.5449961,38.5891721 L9.80805538,38.7946943 C9.77222922,38.8046843 9.7357185,38.7993065 9.70566476,38.7824143 C9.67654074,38.7660447 9.65341848,38.7387414 9.6436857,38.7039809 L9.6436857,38.7039809 L1.21744288,8.61166263 C1.18313986,8.48913268 1.20192058,8.3643457 1.2598922,8.26162933 Z" id="Shape"></path>
                        <path d="M32.7868187,3.05748273 C32.6284534,6.51116076 31.9541646,9.72855079 31.1130651,12.9040641 C31.0589676,13.1083054 31.0041848,13.3123557 30.948977,13.5166618 C31.0879806,13.6805941 31.2303846,13.8445966 31.3763136,14.0087084 C33.6271616,16.5400126 35.9502151,18.2354151 38.4343181,19.5653081 L38.685,19.697 L38.4989919,19.9130707 C35.2401364,23.5665647 30.9388595,23.4799802 26.5960804,23.0952792 L26.293041,23.0679992 L25.5103036,22.993751 C25.2535097,22.9686662 24.9965631,22.9430348 24.7396163,22.9174042 C19.7321744,22.4179086 14.7957938,22.0496517 10.8007603,25.0121664 L10.8007603,25.0121664 L5.865,7.374 L6.06728104,7.19499292 C9.30387002,4.40434828 13.3748114,4.61396875 17.4676183,5.00768119 L18.4121305,5.10052398 L19.201278,5.17910171 L19.201278,5.17910171 L19.9934804,5.25564002 C24.6083239,5.68618568 29.0993288,5.7901822 32.7868187,3.05748273 Z" id="Shape"></path>
                    </g>
                </g>
            </g>
        </g>
    </g>
</svg>