<?xml version="1.0" encoding="UTF-8"?>
<svg width="133px" height="59px" viewBox="0 0 133 59" version="1.1" xmlns="http://www.w3.org/2000/svg" xmlns:xlink="http://www.w3.org/1999/xlink">
    <title>FAAC63FD-9F43-4E54-A116-146E6D1BCF0B@2x</title>
    <defs>
        <polygon id="path-1" points="0 0 0.38304 0 0.38304 38.9254262 0 38.9254262"></polygon>
        <polygon id="path-3" points="132.999579 0 132.999579 41.0115191 0 41.0115191 0 0"></polygon>
        <path d="M19.3594571,16.626587 L19.3795723,16.6327562 L19.399708,16.6403823 C19.417981,16.6478676 19.4400438,16.6582808 19.466323,16.6723883 C19.6435392,16.7675235 19.8732933,16.9559219 20.1419237,17.2551061 C20.2286171,17.3516599 20.3162174,17.4562548 20.4046249,17.5688593 L20.4046249,17.5688593 L20.4636818,17.6451152 L20.5229712,17.7237424 C20.6318777,17.8700644 20.7419237,18.0283306 20.852927,18.1984838 L20.852927,18.1984838 L20.9135681,18.2924731 L20.9135681,18.2924731 L20.9439578,18.3403513 L21.0048714,18.4378733 L21.0659584,18.5377479 C21.0761537,18.5545896 21.0863559,18.5715292 21.0965649,18.5885668 L21.0965649,18.5885668 L21.1578998,18.6919663 C21.1681356,18.7093953 21.1783779,18.726922 21.1886265,18.7445465 L21.1886265,18.7445465 L21.2501945,18.8514664 L21.3119096,18.9607306 C21.3222074,18.9791365 21.332511,18.9976401 21.3428203,19.0162411 L21.3428203,19.0162411 L21.4047439,19.1290179 L21.4667982,19.2441337 L21.5289766,19.3615867 L21.5912727,19.4813746 C21.6016648,19.5015337 21.6120615,19.52179 21.6224628,19.5421435 L21.6224628,19.5421435 L21.6849229,19.66543 L21.6849229,19.66543 L21.7161913,19.7279471 L21.7788007,19.8547275 L21.7788007,19.8547275 L21.81014,19.9189904 L21.872884,20.0492602 L21.9357093,20.1818536 L21.9357093,20.1818536 L21.9671505,20.249021 L22.0300857,20.385096 L22.0930859,20.5234894 C22.103591,20.546748 22.1140986,20.5701032 22.1246084,20.5935548 L22.1246084,20.5935548 L22.1876938,20.735422 L22.2508279,20.8796025 L22.314004,21.0260942 L22.3772155,21.1748951 L22.4404559,21.326003 C23.9291507,24.9095652 25.346996,30.1733577 26.6695402,37.080766 C24.4145164,37.996448 21.9468216,38.5006098 19.3606981,38.5006098 C16.6630581,38.5006098 14.0942804,37.9520305 11.761049,36.9609478 C12.0054476,35.7774712 12.2512033,34.6441607 12.4989773,33.5594786 L12.4989773,33.5594786 L12.5991681,33.1239968 C13.7526177,28.14638 14.9492572,24.2185427 16.1766617,21.3586248 C16.1984995,21.3077415 16.220329,21.2572424 16.2421489,21.2071276 L16.2421489,21.2071276 L16.3075793,21.0579369 C16.3184792,21.0332641 16.3293766,21.0086875 16.3402711,20.9842071 L16.3402711,20.9842071 L16.4056042,20.8384799 L16.4708643,20.6950642 C16.4817346,20.6713544 16.4926016,20.6477409 16.5034651,20.6242238 L16.5034651,20.6242238 L16.5686038,20.4842791 C16.579453,20.461148 16.5902985,20.4381134 16.6011401,20.4151754 L16.6011401,20.4151754 L16.6661429,20.2787062 C16.6769686,20.2561546 16.6877903,20.2336996 16.6986077,20.2113413 L16.6986077,20.2113413 L16.76346,20.0783521 L16.76346,20.0783521 L16.7958459,20.0127284 L16.8605333,19.8832238 L16.9251026,19.7560447 L16.9895475,19.6311931 L17.0538615,19.508671 L17.0538615,19.508671 L17.0859674,19.4482842 L17.1500729,19.3292602 C17.2034339,19.231046 17.2566417,19.1352635 17.3096795,19.0419181 L17.3096795,19.0419181 L17.3732424,18.9310738 C17.3838222,18.9127948 17.394395,18.8946134 17.4049606,18.8765296 L17.4049606,18.8765296 L17.4682667,18.7691983 L17.5313935,18.6642115 L17.5943347,18.5615713 C17.6467065,18.4770161 17.6988782,18.3949073 17.750833,18.3152501 L17.750833,18.3152501 L17.8130736,18.2208387 L17.8750996,18.1287827 C17.8957384,18.0984903 17.9163403,18.0685907 17.9369044,18.0390844 L17.9369044,18.0390844 L17.9984817,17.9517456 C18.0087252,17.9373859 18.018959,17.9231246 18.029183,17.9089617 L18.029183,17.9089617 L18.0904068,17.8251661 C18.1107745,17.7976282 18.1311016,17.7704843 18.151387,17.743735 L18.151387,17.743735 L18.2121171,17.6646705 C18.3232225,17.5218895 18.4330344,17.3910502 18.5413743,17.272208 C18.8186315,16.9680738 19.0564534,16.7752343 19.2411439,16.6768132 L19.2411439,16.6768132 L19.2689902,16.6623088 L19.2923065,16.6508164 L19.2923065,16.6508164 L19.3023978,16.6460959 L19.3197101,16.6384985 L19.333547,16.6330823 L19.333547,16.6330823 L19.3487089,16.6283212 L19.355703,16.6269045 L19.3594571,16.626587 Z M19.3606981,0 C30.0533165,0 38.7213963,8.61865507 38.7213963,19.2503049 C38.7213963,24.9710948 36.2116283,30.1090394 32.2271526,33.6349802 C30.9586088,27.4553124 29.5886777,22.5870418 28.0993298,19.0019076 C27.9092199,18.5442782 27.7164377,18.1055377 27.520622,17.6855726 L27.520622,17.6855726 L27.4365143,17.5067367 C26.5935584,15.7298666 25.6939398,14.2975522 24.7092397,13.2008533 C23.187604,11.5061483 21.3856496,10.5388029 19.3606981,10.5388029 C17.3428463,10.5388029 15.5407437,11.4991384 14.0050034,13.1837514 C12.9761146,14.3123793 12.0316618,15.7998275 11.1408996,17.6556539 L11.1408996,17.6556539 L11.0548634,17.8364003 C10.8831221,18.2001943 10.7133549,18.5777998 10.545339,18.9692858 C9.02234346,22.5179466 7.59869861,27.326228 6.25737797,33.418988 C2.41038771,29.9033022 0,24.8566866 0,19.2503049 C0,8.61865507 8.66807981,0 19.3606981,0 Z" id="path-5"></path>
        <path d="M37.3674372,12.1639373 C38.2412017,14.3571234 38.7213963,16.7479562 38.7213963,19.2503049 C38.7213963,29.8819547 30.0533165,38.5006098 19.3606981,38.5006098 C13.7642347,38.5006098 8.72237813,36.1395949 5.18767994,32.3646854 C7.83723606,32.0452197 10.5391484,31.0214959 13.255709,29.3212457 C14.0205187,28.842564 14.7915499,28.2975167 15.5890032,27.6763072 L15.5890032,27.6763072 L15.7602978,27.5420216 C16.1895822,27.2033753 16.6268635,26.8426705 17.0752475,26.4584009 L17.0752475,26.4584009 L17.2552005,26.3034328 L17.4363821,26.1459296 L17.6188362,25.98587 L17.8026072,25.8232326 C17.8640885,25.7685882 17.9257967,25.7135105 17.9877391,25.657996 L17.9877391,25.657996 L18.1944373,25.472131 L18.296273,25.380079 L18.4979396,25.1967744 L18.6410896,25.0658001 L18.8486147,24.8746133 L19.0578024,24.6803097 L19.3631244,24.3939413 L19.6160481,24.1544127 L19.9474799,23.8377783 L20.3745899,23.4259847 L20.7612166,23.0504558 L21.2254659,22.5970638 L22.796958,21.0524156 L23.3717069,20.488492 L23.773595,20.0958179 L24.0286678,19.847509 L24.3933843,19.4940037 L24.682104,19.2157173 L24.9581509,18.9512062 L25.1705917,18.7488578 L25.4265563,18.5066757 L25.6243346,18.3209219 L25.8637254,18.0978972 L26.0496481,17.9262008 L26.3205148,17.6786871 L26.4965563,17.5196344 L26.6696155,17.3647621 L26.7977864,17.2510498 L26.9669608,17.1022873 L27.0928548,16.9925817 L27.2181628,16.884241 L27.4263425,16.7061319 L27.6346271,16.5302477 L27.8083812,16.3852337 C27.8836704,16.3227244 27.9593617,16.2602988 28.0356794,16.1977539 C28.0587915,16.1788128 28.0818607,16.1599565 28.1048872,16.1411849 L28.1048872,16.1411849 L28.2425352,16.0295722 L28.3791659,15.9199902 L28.5147866,15.8124357 C28.6499048,15.705894 28.7835191,15.6023888 28.9156624,15.5019056 L28.9156624,15.5019056 L29.0473167,15.4024292 L29.1779977,15.3049644 C29.1996972,15.2888877 29.2213564,15.2728946 29.2429755,15.2569852 L29.2429755,15.2569852 L29.3722103,15.1625316 L29.5642744,15.0246066 L29.5642744,15.0246066 L29.6278225,14.9796314 L29.7542146,14.8911785 L29.8796737,14.8047194 L29.9420558,14.7622366 L30.0661293,14.6787622 C30.1073343,14.6512685 30.1483869,14.6241059 30.1892883,14.5972736 L30.1892883,14.5972736 L30.31154,14.5177676 C30.3724403,14.4785097 30.4330031,14.4399941 30.4932326,14.4022189 L30.4932326,14.4022189 L30.6132483,14.3276553 C30.77268,14.229552 30.9297609,14.1367057 31.0845693,14.049082 L31.0845693,14.049082 L31.2002507,13.984343 L31.3150872,13.9215592 C31.8681006,13.6228243 32.391766,13.3924928 32.889812,13.2289327 C34.5023004,12.6993853 35.9306749,12.3576937 37.1721644,12.1887883 Z M19.3606981,0 C25.1844758,0 30.4076782,2.55670691 33.9569047,6.60284065 C32.9989572,6.82654789 32.0032229,7.10892941 30.9696177,7.44836931 C29.0555279,8.07696369 27.1676236,9.1598778 25.1485491,10.7022202 L25.1485491,10.7022202 L24.9822992,10.8300228 L24.8154391,10.959895 C24.5925435,11.1344382 24.3679691,11.3145023 24.1415088,11.5000941 C24.0038259,11.6129298 23.8684533,11.7249478 23.734389,11.8370476 L23.734389,11.8370476 L23.4345293,12.0897902 L23.4345293,12.0897902 L23.3351189,12.1744927 L23.2358233,12.2595633 L23.0570808,12.4138872 L22.9376862,12.517827 L22.7377801,12.6933894 L22.5765988,12.8363245 L22.4138838,12.9818427 L22.2906096,13.0928844 L22.1242848,13.2437545 L21.9126889,13.4373512 L21.7399914,13.5966569 L21.5192122,13.801891 L21.292279,14.0145351 L21.0584403,14.2352637 L20.8169447,14.4647517 L20.4645561,14.8020352 L20.2016175,15.0552984 L19.7593618,15.4837912 L19.2878848,15.9433443 L18.7187118,16.5009094 L17.3549716,17.8422869 L16.5055017,18.6735475 L15.9585325,19.2041777 L15.5954618,19.5531728 L15.2272769,19.9034782 L14.9081098,20.2035282 L14.6273509,20.4643111 L14.2942558,20.7696915 L14.1602958,20.8913061 L13.9912237,21.0438788 L13.8884919,21.1361175 L13.8884919,21.1361175 L13.81025,21.2061037 L13.6548906,21.3442475 L13.5010085,21.479966 L13.3485771,21.6132746 L13.1975698,21.7441888 L13.0479603,21.8727241 L13.0479603,21.8727241 L12.9736714,21.9361045 L12.8261089,22.0611004 C12.7526627,22.123012 12.6797158,22.1840461 12.6072533,22.2442112 L12.6072533,22.2442112 L12.4629698,22.3633857 C12.2714413,22.5207472 12.0832869,22.6719713 11.898224,22.8172231 L11.898224,22.8172231 L11.7600021,22.9250448 C11.7370602,22.9428293 11.7141656,22.9605212 11.6913176,22.9781207 L11.6913176,22.9781207 L11.554785,23.082612 L11.4193456,23.1849025 C11.3743783,23.2186342 11.3295888,23.2520017 11.2849727,23.2850075 L11.2849727,23.2850075 L11.1516401,23.3829427 C10.7531757,23.6735086 10.3683957,23.9349896 9.99408169,24.1692666 C6.7401529,26.2058466 3.89150185,26.8033307 1.26100095,26.0997626 C0.446368817,23.9718533 0,21.6629094 0,19.2503049 C0,8.61865507 8.66807981,0 19.3606981,0 Z M13.0726081,5.92317073 C10.8335556,5.92317073 9.01844486,7.72793184 9.01844486,9.95421748 C9.01844486,12.1805031 10.8335556,13.9852642 13.0726081,13.9852642 C15.3116607,13.9852642 17.1267714,12.1805031 17.1267714,9.95421748 C17.1267714,7.72793184 15.3116607,5.92317073 13.0726081,5.92317073 Z" id="path-7"></path>
        <path d="M32.3389164,4.96530179 C36.2585036,8.48803613 38.7213963,13.5831908 38.7213963,19.2503049 C38.7213963,29.8819547 30.0533165,38.5006098 19.3606981,38.5006098 C8.66807981,38.5006098 0,29.8819547 0,19.2503049 C0,13.8433973 2.24191667,8.95713173 5.85188474,5.46039074 C7.2640721,12.0789488 8.76620166,17.2529237 10.3798629,21.0128405 C10.5478789,21.4043265 10.717646,21.781932 10.8893874,22.145726 L10.9754236,22.3264724 C11.8661857,24.1822988 12.8106386,25.669747 13.8395273,26.7983749 C15.3752677,28.4829879 17.1773702,29.4433234 19.1952221,29.4433234 C21.2201736,29.4433234 23.022128,28.4759781 24.5437637,26.781273 C25.5284637,25.6845741 26.4280824,24.2522598 27.2710382,22.4753896 L27.355146,22.2965537 C27.5509616,21.8765886 27.7437439,21.4378481 27.9338538,20.9802187 C29.5127678,17.1794824 30.9574703,11.936639 32.2887954,5.22049101 Z M19.3606981,0 C21.9865845,0 24.4903724,0.519784365 26.7736666,1.46151865 L26.7539594,1.57046036 L26.7539594,1.57046036 L26.6629372,2.06122895 C25.2952839,9.38328266 23.823459,14.9286492 22.2749798,18.6561233 L22.2117394,18.8072312 L22.1485279,18.9560321 L22.0853518,19.1025238 L22.0222178,19.2467043 L21.9591323,19.3885715 L21.9276099,19.4586369 L21.9276099,19.4586369 L21.8646096,19.5970303 L21.8016744,19.7331053 C21.791191,19.7555911 21.7807106,19.7779803 21.7702333,19.8002727 L21.7074079,19.9328661 L21.644664,20.0631359 C21.6342138,20.0846538 21.6237673,20.1060747 21.6133246,20.1273988 L21.5507152,20.2541792 C21.5402883,20.2751153 21.5298655,20.2959544 21.5194468,20.3166963 L21.4569867,20.4399828 C21.4465855,20.4603363 21.4361887,20.4805926 21.4257966,20.5007518 L21.3635006,20.6205397 L21.3013221,20.7379926 L21.2392678,20.8531084 L21.1773443,20.9658852 C21.167035,20.9844863 21.1567313,21.0029898 21.1464336,21.0213957 L21.0847185,21.1306599 L21.0231505,21.2375798 C21.0129018,21.2552043 21.0026595,21.272731 20.9924238,21.29016 L20.9310889,21.3935595 C20.9208798,21.4105971 20.9106776,21.4275367 20.9004823,21.4443784 L20.8393953,21.544253 L20.7784817,21.641775 L20.748092,21.6896532 L20.748092,21.6896532 L20.6874509,21.7836425 C20.5764476,21.9537957 20.4664016,22.1120619 20.3574952,22.2583839 L20.2982057,22.3370111 L20.2391489,22.413267 C20.1507414,22.5258716 20.063141,22.6304664 19.9764476,22.7270202 C19.7078172,23.0262044 19.4780631,23.2146028 19.300847,23.309738 C19.2745677,23.3238455 19.252505,23.3342587 19.234232,23.341744 L19.2140962,23.3493701 L19.193981,23.3555393 L19.1902269,23.3552218 L19.1832329,23.3538051 L19.173818,23.3510379 C19.1720237,23.3504457 19.170111,23.3497833 19.168071,23.349044 L19.154234,23.3436278 L19.1369217,23.3360304 C19.1337233,23.3345639 19.1303625,23.3329927 19.1268305,23.3313099 L19.1035142,23.3198175 L19.0756679,23.3053131 C18.8909774,23.2068921 18.6531554,23.0140525 18.3758982,22.7099183 C18.2675584,22.5910762 18.1577464,22.4602368 18.0466411,22.3174558 L17.985911,22.2383913 C17.9656256,22.211642 17.9452985,22.1844982 17.9249308,22.1569603 L17.8637069,22.0731646 C17.853483,22.0590017 17.8432492,22.0447404 17.8330056,22.0303807 L17.7714283,21.9430419 L17.7096235,21.8533436 L17.7096235,21.8533436 L17.6475976,21.7612877 L17.585357,21.6668762 C17.5334022,21.587219 17.4812305,21.5051102 17.4288586,21.420555 L17.3659175,21.3179148 L17.3027906,21.2129281 L17.2394846,21.1055968 L17.2077663,21.0510525 L17.2077663,21.0510525 L17.1442035,20.9402082 C17.0911656,20.8468628 17.0379578,20.7510804 16.9845969,20.6528661 L16.9204913,20.5338421 L16.8883854,20.4734553 L16.8883854,20.4734553 L16.8240714,20.3509332 L16.7596266,20.2260817 L16.6950572,20.0989026 L16.6303698,19.9693979 C16.6195791,19.9476201 16.6087838,19.9257455 16.5979839,19.9037742 L16.5331316,19.770785 C16.5223142,19.7484267 16.5114926,19.7259717 16.5006668,19.7034201 L16.4356641,19.5669509 C16.4248224,19.5440129 16.4139769,19.5209783 16.4031277,19.4978472 L16.337989,19.3579025 L16.3053883,19.2870621 L16.3053883,19.2870621 L16.2401281,19.1436464 L16.1747951,18.9979192 C16.1639005,18.9734388 16.1530032,18.9488622 16.1421032,18.9241894 L16.0766728,18.7749987 C16.0548529,18.724884 16.0330235,18.6743848 16.0111857,18.6235015 C14.7837812,15.7635836 13.5871416,11.8357463 12.4336921,6.85812951 L12.3335013,6.42264776 C11.996583,4.94771805 11.6633966,3.38287423 11.3342539,1.72857135 C13.7798398,0.617894777 16.4976966,0 19.3606981,0 Z" id="path-9"></path>
    </defs>
    <g id="Desktop-1920px" stroke="none" stroke-width="1" fill="none" fill-rule="evenodd">
        <g id="Default-Template" transform="translate(-348.000000, -11.000000)">
            <g id="Logo" transform="translate(348.000000, 11.000000)">
                <polygon id="Fill-1" fill="#D53D0F" points="14.3047678 46.3395771 11.5194986 46.3395771 5.96467009 51.9509577 5.96467009 46.3395771 3.77446524 46.3395771 3.77446524 58.7045312 5.96467009 58.7045312 5.96467009 54.5548405 7.75944257 52.7830836 11.8896417 58.7045312 14.6247155 58.7045312 9.27948152 51.2716019"></polygon>
                <path d="M22.6860565,57.1788286 C20.3211257,57.1788286 18.8409365,55.3723684 18.8409365,52.4878411 C18.8409365,49.6919583 20.3360694,47.8704097 22.6511879,47.8704097 C24.9762689,47.8704097 26.4614393,49.6768699 26.4614393,52.5074561 C26.4614393,55.3376651 24.9762689,57.1788286 22.6860565,57.1788286 M22.6860565,46.0443345 C18.8409365,46.0443345 16.6158631,48.8941585 16.6158631,52.5221673 C16.6158631,56.3765023 19.0509142,59 22.6511879,59 C26.2311536,59 28.6811483,56.3765023 28.6811483,52.5221673 C28.6811483,48.6832979 26.2311536,46.0443345 22.6860565,46.0443345" id="Fill-2" fill="#D53D0F"></path>
                <polygon id="Fill-4" fill="#D53D0F" points="38.6827134 56.0121925 35.1724848 46.3397657 32.0875759 46.3397657 32.0875759 58.7047198 34.1678107 58.7047198 34.1678107 49.1699747 37.7477764 58.7047198 39.5479133 58.7047198 43.0378339 49.1699747 43.0378339 58.7047198 45.1379935 58.7047198 45.1379935 46.3397657 42.0680283 46.3397657"></polygon>
                <path d="M55.0692468,56.9327743 L51.3992359,56.9327743 L51.3992359,52.8374019 L55.0343782,52.8374019 C56.4095786,52.8374019 57.2395267,53.6148324 57.2395267,54.9192257 C57.2395267,56.2583223 56.5145674,56.9327743 55.0692468,56.9327743 M55.1592919,51.0648907 L51.3992359,51.0648907 L51.3992359,48.215444 L58.439618,48.215444 L58.439618,46.3399543 L49.1940874,46.3399543 L49.1940874,58.7045312 L55.1592919,58.7045312 C57.8893846,58.7045312 59.4446753,57.3167744 59.4446753,54.8652846 C59.4446753,52.4334097 57.9093095,51.0648907 55.1592919,51.0648907" id="Fill-6" fill="#D53D0F"></path>
                <path d="M68.407464,57.1784514 C66.0425333,57.1784514 64.5623441,55.3723684 64.5623441,52.4874639 C64.5623441,49.6915811 66.0574769,47.8704097 68.3725955,47.8704097 C70.6980597,47.8704097 72.1832301,49.6768699 72.1832301,52.5070789 C72.1832301,55.3376651 70.6980597,57.1784514 68.407464,57.1784514 M68.407464,46.0443345 C64.5623441,46.0443345 62.3372707,48.8941585 62.3372707,52.5221673 C62.3372707,56.3761251 64.7723217,59 68.3725955,59 C71.9525612,59 74.4025559,56.3761251 74.4025559,52.5221673 C74.4025559,48.6829207 71.9525612,46.0443345 68.407464,46.0443345" id="Fill-8" fill="#D53D0F"></path>
                <path d="M81.7600502,53.5117031 C81.6550614,56.6568827 80.9649706,57.1789418 80.0649022,57.1789418 C79.8897931,57.1789418 79.4652397,57.1393347 79.1997023,57.0359791 L79.1997023,58.7047575 C79.51965,58.8081131 80.0300336,58.9310837 80.5247072,58.9310837 C82.3252273,58.9310837 83.7498567,57.5580381 83.8950785,54.1020372 L84.1199998,48.2152931 L88.0049695,48.2152931 L88.0049695,58.7047575 L90.2105012,58.7047575 L90.2105012,46.3394262 L82.0052796,46.3394262 L81.7600502,53.5117031 Z" id="Fill-10" fill="#8E8FAE"></path>
                <path d="M115.238496,55.441247 L115.238496,49.4160667 C117.143622,49.6027858 118.448319,50.4545267 118.448319,52.472979 C118.448319,54.4865277 117.158566,55.2145436 115.238496,55.441247 L115.238496,55.441247 Z M113.033348,55.441247 C111.108297,55.2145436 109.823142,54.4865277 109.823142,52.472979 C109.823142,50.4545267 111.127839,49.6027858 113.033348,49.4160667 L113.033348,55.441247 Z M115.238496,47.5409542 L115.238496,46.3399165 L113.033348,46.3399165 L113.033348,47.5409542 C110.158033,47.6243177 107.61761,49.3277994 107.61761,52.472979 C107.61761,55.7018993 110.35345,57.2627956 113.033348,57.3167367 L113.033348,58.7044934 L115.238496,58.7044934 L115.238496,57.3167367 C117.938702,57.2627956 120.653467,55.7018993 120.653467,52.472979 C120.653467,49.3277994 118.168221,47.6443098 115.238496,47.5409542 L115.238496,47.5409542 Z" id="Fill-12" fill="#8E8FAE"></path>
                <polygon id="Fill-14" fill="#8E8FAE" points="96.3669463 55.8203057 96.3669463 46.3398788 94.1617978 46.3398788 94.1617978 58.7044557 96.7167814 58.7044557 102.116809 49.2244061 102.116809 58.7044557 104.321957 58.7044557 104.321957 46.3398788 101.761993 46.3398788"></polygon>
                <polygon id="Fill-16" fill="#8E8FAE" points="122.789645 46.3395771 122.789645 48.215444 126.79493 48.215444 126.79493 58.7045312 128.994715 58.7045312 128.994715 48.215444 133 48.215444 133 46.3395771"></polygon>
                <g id="Group-20" transform="translate(9.711583, 2.086055)">
                    <mask id="mask-2" fill="white">
                        <use xlink:href="#path-1"></use>
                    </mask>
                    <g id="Clip-19"></g>
                    <polygon id="Fill-18" fill="#51DCF1" mask="url(#mask-2)" points="0.19152 38.9254262 0.19152 38.9254262 0.19152 -3.77210314e-05"></polygon>
                </g>
                <mask id="mask-4" fill="white">
                    <use xlink:href="#path-3"></use>
                </mask>
                <g id="Clip-22"></g>
                <g id="Group-17" mask="url(#mask-4)">
                    <g transform="translate(1.683960, 1.249085)">
                        <mask id="mask-6" fill="white">
                            <use xlink:href="#path-5"></use>
                        </mask>
                        <use id="Mask" stroke="none" fill="#D8D8D8" fill-rule="evenodd" opacity="0.702784339" xlink:href="#path-5"></use>
                        <g id="Group-17" stroke="none" stroke-width="1" fill="none" fill-rule="evenodd" mask="url(#mask-6)">
                            <g transform="translate(-1.653303, -2.047905)">
                                <polygon id="Fill-21" fill="#A72F1C" points="-1.29253988e-13 42.2658875 14.1033078 42.2658875 14.1033078 -1.42602138e-13 -1.29253988e-13 -1.42602138e-13"></polygon>
                                <polygon id="Fill-24" fill="#C55240" points="13.4881253 42.2658875 27.5914331 42.2658875 27.5914331 -1.42602138e-13 13.4881253 -1.42602138e-13"></polygon>
                                <polygon id="Fill-26" fill="#E17464" points="26.976664 42.2658875 41.0799719 42.2658875 41.0799719 -1.42602138e-13 26.976664 -1.42602138e-13"></polygon>
                            </g>
                        </g>
                    </g>
                </g>
                <polygon id="Fill-23" fill="#FFB08D" mask="url(#mask-4)" points="22.4041193 41.0114814 22.4041193 41.0114814 22.4041193 2.08601742"></polygon>
                <polygon id="Fill-25" fill="#E8908E" mask="url(#mask-4)" points="34.905453 41.0114814 34.905453 41.0114814 34.905453 2.08601742"></polygon>
                <g id="Group-12" mask="url(#mask-4)">
                    <g transform="translate(47.981282, 1.249085)">
                        <mask id="mask-8" fill="white">
                            <use xlink:href="#path-7"></use>
                        </mask>
                        <use id="Mask" stroke="none" fill="#D8D8D8" fill-rule="evenodd" opacity="0.702784339" xlink:href="#path-7"></use>
                        <g id="Group-12" stroke="none" stroke-width="1" fill="none" fill-rule="evenodd" mask="url(#mask-8)">
                            <g transform="translate(-1.623536, -2.047905)">
                                <polygon id="Fill-27" fill="#7E0205" points="-8.22525378e-14 42.2658875 15.1926936 42.2658875 15.1926936 -1.42602138e-13 -8.22525378e-14 -1.42602138e-13"></polygon>
                                <polygon id="Fill-28" fill="#D53D0F" points="14.5303801 42.2658875 29.7230737 42.2658875 29.7230737 -1.42602138e-13 14.5303801 -1.42602138e-13"></polygon>
                                <polygon id="Fill-30" fill="#FA8745" points="29.0603468 42.2658875 44.2530404 42.2658875 44.2530404 -1.42602138e-13 29.0603468 -1.42602138e-13"></polygon>
                            </g>
                        </g>
                    </g>
                </g>
                <polygon id="Fill-29" fill="#CF5149" mask="url(#mask-4)" points="82.9668086 41.0114814 82.9668086 41.0114814 82.9668086 2.08601742"></polygon>
                <g id="Group-19" mask="url(#mask-4)">
                    <g transform="translate(93.436834, 1.249085)">
                        <mask id="mask-10" fill="white">
                            <use xlink:href="#path-9"></use>
                        </mask>
                        <use id="Mask" stroke="none" fill="#D8D8D8" fill-rule="evenodd" xlink:href="#path-9"></use>
                        <g id="Group-19" stroke="none" stroke-width="1" fill="none" fill-rule="evenodd" mask="url(#mask-10)">
                            <g transform="translate(-2.085750, -2.047946)">
                                <polygon id="Fill-31" fill="#A61804" points="7.19312937 42.2658875 7.19312937 42.2658875 7.19312937 -8.87625555e-13"></polygon>
                                <polygon id="Fill-32" fill="#751103" points="-4.70014502e-14 42.2659284 14.3865068 42.2659284 14.3865068 4.09580943e-05 -4.70014502e-14 4.09580943e-05"></polygon>
                                <polygon id="Fill-33" fill="#5D0D02" points="20.9525469 42.2658875 20.9525469 42.2658875 20.9525469 -8.87625555e-13"></polygon>
                                <polygon id="Fill-34" fill="#A72F1C" points="13.7589214 42.2659284 28.1458416 42.2659284 28.1458416 4.09580943e-05 13.7589214 4.09580943e-05"></polygon>
                                <polygon id="Fill-35" fill="#FC0000" points="34.7120057 42.2658875 34.7120057 42.2658875 34.7120057 -8.87625555e-13"></polygon>
                                <polygon id="Fill-36" fill="#C55240" points="27.5186696 42.2659284 41.9051764 42.2659284 41.9051764 4.09580943e-05 27.5186696 4.09580943e-05"></polygon>
                            </g>
                        </g>
                    </g>
                </g>
            </g>
        </g>
    </g>
</svg>