<?xml version="1.0" encoding="UTF-8"?>
<svg width="24px" height="23px" viewBox="0 0 24 23" version="1.1" xmlns="http://www.w3.org/2000/svg" xmlns:xlink="http://www.w3.org/1999/xlink">
    <title>BF042B89-5972-43DD-A4F4-C38FB7BD4CCF</title>
    <defs>
        <filter id="filter-1">
            <feColorMatrix in="SourceGraphic" type="matrix" values="0 0 0 0 0.835294 0 0 0 0 0.239216 0 0 0 0 0.058824 0 0 0 1.000000 0"></feColorMatrix>
        </filter>
    </defs>
    <g id="Desktop-1920px" stroke="none" stroke-width="1" fill="none" fill-rule="evenodd">
        <g id="Home-(design)-1920px-slides-2" transform="translate(-757.000000, -5724.000000)">
            <g id="Desktop/Form" transform="translate(0.000000, 4995.000000)">
                <g id="Group-7" transform="translate(349.000000, 234.000000)">
                    <g id="Group-46" transform="translate(408.000000, 494.000000)">
                        <g id="attach" transform="translate(0.000000, 1.000000)" filter="url(#filter-1)">
                            <g>
                                <path d="M21.7527629,2.27160992 C18.7616186,-0.757203306 13.894347,-0.757203306 10.9026871,2.27160992 L1.60230079,11.6886304 C-0.534217445,13.8521905 -0.53407682,17.3724846 1.60258204,19.5359023 C2.67100522,20.6177298 4.07397568,21.1586198 5.47750864,21.1584774 C6.88066661,21.158335 8.28438707,20.6175874 9.35262275,19.5359023 L17.8776957,10.9036374 C18.4987902,10.2748457 18.8408843,9.43878234 18.8409781,8.54951283 C18.8409781,7.66019586 18.4990245,6.82418 17.8778363,6.19519838 C16.5957097,4.89712879 14.5095822,4.89717625 13.2277369,6.1954357 L7.65265192,11.8403226 C7.22463577,12.2736612 7.22463577,12.976353 7.65255817,13.4097865 C8.08052744,13.8432674 8.77451267,13.843125 9.20257569,13.4097865 L14.7777075,7.7648521 C15.2050674,7.33213059 15.9003182,7.33203566 16.327725,7.76475717 C16.5347253,7.97435442 16.6487723,8.25305802 16.6487723,8.54946537 C16.6487723,8.84587272 16.5347721,9.12448139 16.327725,9.33417357 L7.80260523,17.9663909 C6.52052554,19.2644131 4.43458549,19.2646029 3.15259955,17.9664859 C1.87061362,16.6683213 1.87051987,14.5561164 3.15236518,13.2579519 L12.4527047,3.84107378 C14.589551,1.67751372 18.0662271,1.67751372 20.2027454,3.84107378 C21.2378873,4.88906005 21.8079817,6.28253057 21.8079817,7.76466224 C21.8079817,9.24679392 21.2378404,10.6402644 20.2027454,11.6883456 L10.9025465,21.1055085 C10.4745772,21.5388945 10.4745772,22.2415389 10.9026403,22.6749724 C11.1166718,22.8917366 11.3971721,23 11.6776256,23 C11.9581259,23 12.2386263,22.8915942 12.4526578,22.6749724 L21.752716,13.257857 C23.2019053,11.7906287 24,9.83979847 24,7.76470971 C24,5.68966841 23.2019053,3.73883816 21.7527629,2.27160992 Z" id="Path" fill="#000000" fill-rule="nonzero"></path>
                            </g>
                        </g>
                    </g>
                </g>
            </g>
        </g>
    </g>
</svg>