<?xml version="1.0" encoding="UTF-8"?>
<svg width="48px" height="48px" viewBox="0 0 48 48" version="1.1" xmlns="http://www.w3.org/2000/svg" xmlns:xlink="http://www.w3.org/1999/xlink">
    <title>F2A0CE0D-2201-4230-AFC7-6AEBBCE74FE0</title>
    <g id="Desktop-1920px" stroke="none" stroke-width="1" fill="none" fill-rule="evenodd" stroke-linejoin="round" stroke-opacity="0.2">
        <g id="Home-(design)-1920px-slides-2" transform="translate(-380.000000, -8971.000000)" stroke="#FFFFFF" stroke-width="3.43">
            <g id="Desktop/Contacts" transform="translate(0.000000, 8723.000000)">
                <g id="Group-3-Copy-7" transform="translate(381.000000, 250.000000)">
                    <path d="M43.4359673,13.8373491 C44.444998,16.3612896 45,19.115831 45,22 C45,34.1502645 35.1502645,44 23,44 C16.9248678,44 11.4248678,41.5375661 7.44365081,37.5563492 L7.40102689,37.5131576 C13.3712137,35.7117592 19.188878,31.8242956 24.8591753,25.9233476 L25.34484,25.4126227 L26.7989972,23.8816847 L27.4849378,23.1719309 L28.467749,22.1738933 L29.094983,21.5513482 L29.2485659,21.4009082 L29.2485659,21.4009082 L29.4009177,21.2525128 L29.998605,20.6790384 L30.5789602,20.1369217 L31.1438756,19.625078 L31.6952437,19.1424224 C32.4741369,18.4732465 33.217352,17.8901012 33.949717,17.3787539 L34.3151103,17.1289975 L34.824936,16.7986893 C36.6473135,15.6561969 38.4639277,14.9283318 40.6647892,14.3915249 L41.1424259,14.2793377 L41.7845192,14.140987 L42.2813128,14.0425557 L42.2813128,14.0425557 L42.7920421,13.9481858 L43.4359673,13.8373491 Z M23,0 C29.8129594,0 35.9026031,3.09688232 39.9380126,7.95972833 C35.2669231,8.98628528 31.9094236,10.6000832 28.0006162,13.859797 L27.5942138,14.2029235 L26.971562,14.7443285 L26.8141463,14.8840684 L26.8141463,14.8840684 L26.6559801,15.0255919 L26.0153147,15.6098025 C25.7995162,15.809433 25.5813865,16.014007 25.3606617,16.2236744 L25.0275953,16.5420145 L24.3489933,17.2020647 L24.003062,17.5439998 L24.003062,17.5439998 L23.6524468,17.8940248 L22.936373,18.618794 L22.1991891,19.3772718 L21.4393123,20.1703576 L20.2402418,21.4355585 C14.5221356,27.3938874 8.88620046,30.8395385 3.34054572,31.8866778 C1.84327516,28.9133453 1,25.5551514 1,22 C1,9.8497355 10.8497355,0 23,0 Z M15.5,8 C13.5670034,8 12,9.56700338 12,11.5 C12,13.4329966 13.5670034,15 15.5,15 C17.4329966,15 19,13.4329966 19,11.5 C19,9.56700338 17.4329966,8 15.5,8 Z" id="Combined-Shape"></path>
                </g>
            </g>
        </g>
    </g>
</svg>