<?xml version="1.0" encoding="UTF-8"?>
<svg width="40px" height="40px" viewBox="0 0 40 40" version="1.1" xmlns="http://www.w3.org/2000/svg" xmlns:xlink="http://www.w3.org/1999/xlink">
    <title>155C242D-CDC2-4F7C-A77B-BBB5D6CCC1FB</title>
    <g id="Desktop-1920px" stroke="none" stroke-width="1" fill="none" fill-rule="evenodd">
        <g id="Home-(design)-1920px-slides-2" transform="translate(-1532.000000, -9975.000000)">
            <g id="Group-41" transform="translate(0.000000, 9821.000000)">
                <g id="Social-icons" transform="translate(1388.000000, 154.000000)">
                    <g id="Instagram" transform="translate(144.000000, 0.000000)">
                        <rect id="Rectangle" fill="#FFFFFF" x="0" y="0" width="40" height="40"></rect>
                        <path d="M19.5008906,10 C16.9208221,10 16.5970271,10.0112812 15.5836832,10.0573958 C14.5723185,10.1037083 13.8819779,10.2638229 13.27793,10.49875 C12.6531006,10.7413958 12.1230742,11.0659792 11.595027,11.5942187 C11.066584,12.1222604 10.7419973,12.6522812 10.4985573,13.2769062 C10.263034,13.8811458 10.1027198,14.5716771 10.0571985,15.5826354 C10.0118751,16.5959687 10,16.9199583 10,19.5 C10,22.0800417 10.0114793,22.4028437 10.0573964,23.4161771 C10.1039073,24.4275312 10.2640236,25.1178646 10.4987552,25.7219062 C10.7416015,26.3467292 11.0661882,26.87675 11.5944333,27.4047917 C12.1222825,27.9332292 12.6523089,28.2586042 13.2767425,28.50125 C13.8811863,28.7361771 14.5717247,28.8962917 15.5828915,28.9426042 C16.5962354,28.9887188 16.9198325,29 19.4997031,29 C22.0799696,29 22.402775,28.9887188 23.4161189,28.9426042 C24.4274836,28.8962917 25.1186158,28.7361771 25.7230596,28.50125 C26.3476911,28.2586042 26.8769258,27.9332292 27.404775,27.4047917 C27.9332181,26.87675 28.2578048,26.3467292 28.5012448,25.7221042 C28.7347889,25.1178646 28.8951031,24.4273333 28.9426036,23.416375 C28.9881249,22.4030417 29,22.0800417 29,19.5 C29,16.9199583 28.9881249,16.5961667 28.9426036,15.5828333 C28.8951031,14.5714792 28.7347889,13.8811458 28.5012448,13.2771042 C28.2578048,12.6522813 27.9332181,12.1222604 27.404775,11.5942188 C26.876332,11.0657813 26.347889,10.7411979 25.7224659,10.49875 C25.1168346,10.2638229 24.4260982,10.1037083 23.4147335,10.0573958 C22.4013896,10.0112813 22.0787821,10 19.4979219,10 L19.5008906,10 Z M18.6486526,11.7119792 C18.9015927,11.7115833 19.1838248,11.7119792 19.5008906,11.7119792 C22.0374171,11.7119792 22.3380556,11.7210833 23.3397223,11.7666042 C24.2659819,11.8089583 24.7686955,11.9637292 25.103574,12.0937604 C25.5469119,12.2659479 25.8629882,12.4717812 26.1952937,12.8042813 C26.5277972,13.1367813 26.7336326,13.4534479 26.9062178,13.8967813 C27.0362504,14.2312604 27.1912207,14.7339688 27.2333774,15.6602188 C27.2788987,16.6616771 27.2887947,16.9625104 27.2887947,19.4978229 C27.2887947,22.0331354 27.2788987,22.3339688 27.2333774,23.3354271 C27.1910228,24.2616771 27.0362504,24.7643854 26.9062178,25.0988646 C26.7340285,25.5421979 26.5277972,25.857875 26.1952937,26.1901771 C25.8627902,26.5226771 25.5471099,26.7285104 25.103574,26.9006979 C24.7690913,27.0313229 24.2659819,27.1856979 23.3397223,27.2280521 C22.3382535,27.2735729 22.0374171,27.2834688 19.5008906,27.2834688 C16.9641663,27.2834688 16.6635277,27.2735729 15.662059,27.2280521 C14.7357993,27.1853021 14.2330858,27.0305313 13.8980094,26.9005 C13.4546714,26.7283125 13.1380014,26.5224792 12.805498,26.1899792 C12.4729945,25.8574792 12.267159,25.5416042 12.0945739,25.0980729 C11.9645413,24.7635938 11.8095709,24.2608854 11.7674142,23.3346354 C11.7218929,22.3331771 11.7127887,22.0323438 11.7127887,19.4954479 C11.7127887,16.9585521 11.7218929,16.6593021 11.7674142,15.6578438 C11.8097689,14.7315938 11.9645413,14.2288854 12.0945739,13.8940104 C12.2667632,13.4506771 12.4729945,13.1340104 12.805498,12.8015104 C13.1380014,12.4690104 13.4546714,12.2631771 13.8980094,12.0905937 C14.2328878,11.9599687 14.7357993,11.8055937 15.662059,11.7630417 C16.5384431,11.7234583 16.8780716,11.7115833 18.6486526,11.7096042 L18.6486526,11.7119792 Z M24.5719643,13.289375 C23.9425827,13.289375 23.4319524,13.7994063 23.4319524,14.4289792 C23.4319524,15.0583542 23.9425827,15.5689792 24.5719643,15.5689792 C25.2013458,15.5689792 25.7119762,15.0583542 25.7119762,14.4289792 C25.7119762,13.7996042 25.2013458,13.2889792 24.5719643,13.2889792 L24.5719643,13.289375 Z M19.5008906,14.6213542 C16.806623,14.6213542 14.622194,16.8057604 14.622194,19.5 C14.622194,22.1942396 16.806623,24.3776563 19.5008906,24.3776563 C22.1951583,24.3776563 24.3787956,22.1942396 24.3787956,19.5 C24.3787956,16.8057604 22.1949604,14.6213542 19.5006927,14.6213542 L19.5008906,14.6213542 Z M19.5008906,16.3333333 C21.2497005,16.3333333 22.6675903,17.7510104 22.6675903,19.5 C22.6675903,21.2487917 21.2497005,22.6666667 19.5008906,22.6666667 C17.7518828,22.6666667 16.334191,21.2487917 16.334191,19.5 C16.334191,17.7510104 17.7518828,16.3333333 19.5008906,16.3333333 L19.5008906,16.3333333 Z" id="Shape" fill="#000000"></path>
                    </g>
                </g>
            </g>
        </g>
    </g>
</svg>