<?xml version="1.0" encoding="UTF-8"?>
<svg width="159px" height="71px" viewBox="0 0 159 71" version="1.1" xmlns="http://www.w3.org/2000/svg" xmlns:xlink="http://www.w3.org/1999/xlink">
    <title>D556F638-91D9-4F29-B358-9A22C0DD7CD0@2x</title>
    <defs>
        <polygon id="path-1" points="0 0 0.456 0 0.456 46.5075649 0 46.5075649"></polygon>
        <polygon id="path-3" points="158 0 158 49 0 49 0 0"></polygon>
        <path d="M22.9985256,19.8652179 L23.022422,19.8725888 L23.0463427,19.8817003 C23.0680506,19.8906437 23.0942605,19.9030852 23.1254796,19.9199407 C23.3360077,20.0336069 23.6089495,20.2587027 23.9280754,20.6161639 C24.0310648,20.731525 24.1351318,20.8564935 24.2401576,20.9910319 L24.2401576,20.9910319 L24.3103155,21.0821415 L24.3807498,21.1760841 C24.5101279,21.3509076 24.6408596,21.540002 24.7727286,21.7432986 L24.7727286,21.7432986 L24.8447686,21.8555957 C24.8567937,21.8745465 24.8688278,21.8936146 24.8808708,21.9127999 L24.8808708,21.9127999 L24.9532345,22.0293179 L25.0258043,22.1486467 C25.037916,22.1687689 25.050036,22.1890082 25.0621641,22.2093644 L25.0621641,22.2093644 L25.1350283,22.3329048 C25.1471881,22.3537286 25.1593557,22.3746693 25.1715309,22.3957269 L25.1715309,22.3957269 L25.244672,22.5234733 L25.3179879,22.6540206 C25.3302214,22.6760118 25.3424618,22.6981195 25.354709,22.7203439 L25.354709,22.7203439 L25.4282726,22.8550879 L25.5019914,22.9926268 L25.5758578,23.1329579 L25.6498639,23.2760789 C25.6622094,23.3001647 25.6745605,23.3243667 25.6869169,23.3486848 L25.6869169,23.3486848 L25.7611178,23.4959858 C25.7734949,23.520768 25.785877,23.5456662 25.7982639,23.5706803 L25.7982639,23.5706803 L25.8726422,23.7221559 C25.8850479,23.7476336 25.897458,23.773227 25.9098725,23.7989363 L25.9098725,23.7989363 L25.9844106,23.9545809 L26.0590455,24.1130016 C26.0714923,24.1396363 26.0839428,24.1663866 26.0963968,24.1932523 L26.0963968,24.1932523 L26.1711622,24.3558328 L26.2460048,24.5211833 C26.2584846,24.5489725 26.2709672,24.5768769 26.2834526,24.6048966 L26.2834526,24.6048966 L26.3583965,24.7743976 L26.4333981,24.9466625 L26.5084496,25.1216887 L26.5835432,25.2994739 L26.6586712,25.4800156 C28.4271908,29.7615806 30.111544,36.0506374 31.6826835,44.3034401 C29.0033733,45.3977228 26.0720214,46 23,46 C19.7954055,46 16.7438835,45.3446186 13.9721564,44.1605781 C14.2618481,42.7478594 14.553952,41.3930509 14.8484562,40.0964043 L14.8484562,40.0964043 L14.9674802,39.5760967 C16.337748,33.6289085 17.7593242,28.9359824 19.2174485,25.5189917 C19.2433913,25.4581971 19.269324,25.3978613 19.2952456,25.3379849 L19.2952456,25.3379849 L19.3729751,25.1597339 C19.385924,25.1302552 19.3988697,25.1008914 19.4118122,25.0716426 L19.4118122,25.0716426 L19.4894261,24.8975298 L19.5669535,24.7261787 C19.5798671,24.6978504 19.5927767,24.6696373 19.6056823,24.6415395 L19.6056823,24.6415395 L19.6830653,24.4743355 C19.6959539,24.4466988 19.7088381,24.4191773 19.7217177,24.3917713 L19.7217177,24.3917713 L19.7989393,24.2287198 C19.8118,24.2017754 19.8246558,24.1749465 19.8375066,24.1482331 L19.8375066,24.1482331 L19.9145494,23.9893395 C19.9273794,23.9630884 19.9402039,23.9369529 19.953023,23.9109331 L19.953023,23.9109331 L20.0298699,23.7562028 L20.1065766,23.6042509 L20.1831354,23.45508 L20.2595388,23.3086923 L20.2595388,23.3086923 L20.2976797,23.236543 L20.3738354,23.0943347 C20.4372268,22.9769897 20.5004363,22.8625502 20.5634439,22.7510224 L20.5634439,22.7510224 L20.6389548,22.6185871 C20.6515234,22.5967476 20.6640836,22.5750247 20.6766353,22.5534184 L20.6766353,22.5534184 L20.7518412,22.4251804 L20.8268342,22.2997437 L20.9016067,22.1771106 C20.9638231,22.0760852 21.0258017,21.9779827 21.0875226,21.8828094 L21.0875226,21.8828094 L21.1614628,21.7700079 L21.235148,21.6600207 C21.2596664,21.6238277 21.2841409,21.5881041 21.3085705,21.5528504 L21.3085705,21.5528504 L21.3817227,21.4484992 C21.3938917,21.4313424 21.4060492,21.4143032 21.418195,21.3973816 L21.418195,21.3973816 L21.4909273,21.2972637 C21.5151236,21.2643618 21.5392717,21.2319307 21.5633702,21.199971 L21.5633702,21.199971 L21.635516,21.1055058 C21.7675062,20.934913 21.8979599,20.778588 22.0266648,20.636597 C22.3560391,20.2732216 22.6385653,20.0428196 22.8579728,19.9252275 L22.8579728,19.9252275 L22.8910534,19.9078978 L22.9187526,19.8941669 L22.9187526,19.8941669 L22.9307407,19.8885269 L22.9513073,19.8794496 L22.9677452,19.8729784 C22.9701686,19.8720951 22.9724409,19.8713037 22.9745725,19.8705961 L22.9745725,19.8705961 L22.9857571,19.8672899 L22.9940659,19.8655973 L22.9985256,19.8652179 Z M23,0 C35.7025492,0 46,10.2974508 46,23 C46,29.8347443 43.0187906,35.9731898 38.2857926,40.1859155 C36.7783308,32.804367 35.1507435,26.987106 33.3812645,22.7032184 C33.155419,22.156449 32.9263988,21.6322479 32.6937749,21.1304793 L32.6937749,21.1304793 L32.5938571,20.9168087 C31.5924477,18.7938286 30.5237244,17.0825191 29.3539267,15.7721983 C27.5462635,13.747388 25.4055891,12.591617 23,12.591617 C20.6028451,12.591617 18.4619947,13.7390127 16.6375755,15.7517652 C15.4152828,17.1002343 14.2932976,18.877417 13.2350956,21.0947329 L13.2350956,21.0947329 L13.1328869,21.3106862 C12.9288627,21.7453423 12.7271838,22.1965001 12.5275853,22.6642423 C10.7181217,26.9045669 9.02670823,32.6501767 7.43311171,39.9307807 C2.86354764,35.7282033 0,29.6985103 0,23 C0,10.2974508 10.2974508,0 23,0 Z" id="path-5"></path>
        <path d="M44.3916458,14.5335919 C45.4295831,17.1539023 46,20.0103371 46,23 C46,35.7025492 35.7025492,46 23,46 C16.3510247,46 10.3610117,43.1786473 6.16183451,38.6678154 C9.31052789,38.2871513 12.5202801,37.0640265 15.7474335,35.0326218 C16.6560073,34.4606995 17.5719722,33.8094844 18.5193256,33.0672719 L18.5193256,33.0672719 L18.7228191,32.9068293 C19.2327977,32.5022194 19.7522764,32.0712542 20.2849447,31.6121342 L20.2849447,31.6121342 L20.4987243,31.4269804 L20.7139631,31.2387978 L20.9307139,31.0475608 L21.1490289,30.8532439 L21.3689607,30.6558214 L21.6145128,30.4337524 C21.6550116,30.3970002 21.6953242,30.3603522 21.7354909,30.3237699 L21.7354909,30.3237699 L21.9750655,30.1047602 L22.145124,29.9482738 L22.3916583,29.7198465 L22.6401678,29.4876952 L23.0028824,29.1455462 L23.303349,28.8593607 L23.6970813,28.4810502 L24.2044767,27.9890449 L24.6637791,27.5403682 L25.215295,26.9986617 L27.0821864,25.1531371 L27.7649728,24.479369 L28.2424054,24.0102073 L28.5454252,23.7135313 L28.9786987,23.291168 L29.3216901,22.9586752 L29.6496266,22.642641 L29.9020007,22.400878 L30.2060799,22.1115221 L30.4410354,21.889586 L30.7254253,21.6231192 L30.9462965,21.4179787 L31.268079,21.1222527 L31.4772117,20.9322187 L31.6828015,20.7471793 L31.8350652,20.6113174 L32.03604,20.433578 L32.1855987,20.3025034 L32.3344613,20.1730594 L32.5817733,19.960257 L32.8292099,19.7501131 L33.0356252,19.5768522 L33.3056495,19.352854 C33.333106,19.3302234 33.3605116,19.3076942 33.3878665,19.2852662 L33.3878665,19.2852662 L33.5513887,19.1519128 L33.7137024,19.0209857 L33.8748163,18.8924811 C34.0353332,18.7651865 34.1940634,18.6415199 34.3510462,18.521464 L34.3510462,18.521464 L34.507448,18.402611 L34.6626936,18.2861613 C34.688472,18.2669531 34.7142025,18.2478449 34.7398855,18.2288365 L34.7398855,18.2288365 L34.8934131,18.1159846 L35.0458062,18.0055264 L35.0458062,18.0055264 L35.1970737,17.897458 L35.3472241,17.7917757 L35.4962663,17.6884755 C35.5210147,17.6714571 35.5457174,17.6545379 35.5703745,17.6377176 L35.5703745,17.6377176 L35.7177705,17.5379835 L35.8640802,17.4406221 L36.009312,17.3456294 L36.225158,17.2075734 L36.3677336,17.1184858 C36.5571342,17.0012734 36.7437422,16.8903419 36.9276505,16.7856503 L36.9276505,16.7856503 L37.0650769,16.708301 L37.2014997,16.6332878 C37.8584651,16.2763634 38.4805658,16.0011666 39.0722313,15.8057471 C40.9529054,15.1845847 42.6227586,14.7797614 44.0786758,14.5742391 Z M23,0 C29.9185915,0 36.1236953,3.05480382 40.3400863,7.88918633 C39.2018537,8.1562769 38.0189664,8.493658 36.791091,8.89920939 C34.5172027,9.65024534 32.274422,10.9440962 29.8758147,12.7868658 L29.8758147,12.7868658 L29.6783141,12.9395625 L29.4800887,13.0947321 C29.2152947,13.3032738 28.9485062,13.518412 28.6794772,13.7401545 C28.5159136,13.8749691 28.3550946,14.0088066 28.1958297,14.142742 L28.1958297,14.142742 L28.0766539,14.2432287 L27.9579492,14.3438529 L27.7215073,14.5459167 L27.6035467,14.6475579 L27.3912053,14.831942 L27.2493677,14.9561278 L27.0118846,15.1658874 L26.8204054,15.3366642 L26.6271042,15.5105274 L26.4806577,15.6431986 L26.2830682,15.8234561 L26.0316979,16.0547628 L25.8265378,16.245099 L25.5642579,16.4903099 L25.2946672,16.7443741 L25.0168731,17.0080977 L24.7299826,17.2822868 L24.3113543,17.6852684 L23.9989901,17.9878638 L23.473602,18.4998211 L22.9134997,19.0488889 L22.2373372,19.71506 L20.6172497,21.3177194 L19.6081018,22.3108983 L18.9583167,22.9448879 L18.5269983,23.3618624 L18.0896043,23.7804025 L17.7104423,24.1388982 L17.376908,24.450478 L16.9811998,24.8153423 L16.8220588,24.9606458 L16.6212056,25.1429376 L16.4991629,25.253143 C16.468105,25.2811376 16.4371221,25.3090104 16.4062136,25.3367616 L16.4062136,25.3367616 L16.2216508,25.5018139 L16.0388429,25.6639685 L15.8577583,25.8232438 L15.6783657,25.9796583 L15.5006336,26.1332304 L15.4123803,26.2089565 L15.2370799,26.3582999 C15.1498277,26.4322711 15.0631687,26.5051937 14.9770852,26.5770782 L14.9770852,26.5770782 L14.8056803,26.7194662 C14.5781494,26.9074795 14.3546269,27.08816 14.134777,27.261705 L14.134777,27.261705 L13.970573,27.3905289 L13.8889777,27.4539431 L13.7267806,27.578788 L13.5658821,27.7010032 C13.5124622,27.7413054 13.4592535,27.7811724 13.4062507,27.8206073 L13.4062507,27.8206073 L13.247855,27.9376189 C12.7744898,28.2847831 12.3173813,28.597197 11.8727061,28.8771079 C8.00763889,31.3100618 4.6239028,32.0240614 1.49928395,31.1839737 C0.530076449,28.6402113 0,25.8820087 0,23 C0,10.2974508 10.2974508,0 23,0 Z M15.5299145,7.07692308 C12.869979,7.07692308 10.7136752,9.23322687 10.7136752,11.8931624 C10.7136752,14.5530979 12.869979,16.7094017 15.5299145,16.7094017 C18.1898501,16.7094017 20.3461538,14.5530979 20.3461538,11.8931624 C20.3461538,9.23322687 18.1898501,7.07692308 15.5299145,7.07692308 Z" id="path-7"></path>
        <path d="M38.417782,5.93247458 C43.0741484,10.1413892 46,16.22901 46,23 C46,35.7025492 35.7025492,46 23,46 C10.2974508,46 0,35.7025492 0,23 C0,16.5393423 2.66379875,10.7008482 6.95299789,6.5229159 C8.62917081,14.4305299 10.4138259,20.6131086 12.3310041,25.1058533 C12.5306026,25.5735955 12.7322815,26.0247533 12.9363057,26.4594095 L13.0385144,26.6753628 C14.0967164,28.8926787 15.2187016,30.6698613 16.4409943,32.0183304 C18.2654135,34.031083 20.4062639,35.1784786 22.8034188,35.1784786 C25.2090079,35.1784786 27.3496823,34.0227077 29.1573455,31.9978973 C30.3271433,30.6875765 31.3958665,28.976267 32.3972759,26.8532869 L32.4971937,26.6396163 C32.7298176,26.1378478 32.9588378,25.6136466 33.1846833,25.0668773 C35.0619692,20.5219905 36.779547,14.2511945 38.3622296,6.21712076 Z M23,0 C26.1196079,0 29.0941547,0.621080628 31.8067352,1.74633668 L31.7829999,1.87636448 L31.7829999,1.87636448 L31.6748678,2.46272805 C30.0501318,11.2110173 28.3016425,17.8365451 26.46209,22.29008 L26.386962,22.4706217 L26.3118684,22.6484069 L26.2368169,22.8234332 L26.1618153,22.995698 L26.0868715,23.165199 C26.0743861,23.1932187 26.0619034,23.2211232 26.0494236,23.2489123 L25.974581,23.4142628 L25.8998156,23.5768433 C25.8873616,23.6037091 25.8749111,23.6304593 25.8624643,23.657094 L25.7878295,23.8155148 L25.7132913,23.9711593 C25.7008768,23.9968686 25.6884667,24.0224621 25.676061,24.0479397 L25.6016827,24.1994153 C25.5892958,24.2244294 25.5769137,24.2493276 25.5645366,24.2741098 L25.4903357,24.4214109 C25.4779793,24.4457289 25.4656282,24.4699309 25.4532827,24.4940168 L25.3792766,24.6371377 L25.3054102,24.7774688 L25.2316914,24.9150077 L25.1581278,25.0497518 C25.1458806,25.0719761 25.1336402,25.0940839 25.1214067,25.116075 L25.0480908,25.2466224 L24.9749497,25.3743688 C24.9627745,25.3954263 24.9506069,25.416367 24.9384471,25.4371909 L24.8655829,25.5607312 C24.8534548,25.5810874 24.8413348,25.6013267 24.8292231,25.6214489 L24.7566533,25.7407777 L24.6842896,25.8572957 C24.6722466,25.876481 24.6602125,25.8955491 24.6481874,25.9144999 L24.5761474,26.026797 C24.4442784,26.2300937 24.3135467,26.419188 24.1841686,26.5940116 L24.1137343,26.6879542 L24.0435764,26.7790638 C23.9385506,26.9136021 23.8344836,27.0385706 23.7314942,27.1539318 C23.4123683,27.5113929 23.1394265,27.7364887 22.9288984,27.8501549 C22.8976793,27.8670104 22.8714694,27.879452 22.8497615,27.8883953 L22.8258408,27.8975069 L22.8019444,27.9048777 L22.7974847,27.9044984 L22.7779913,27.8994995 L22.771164,27.8971172 L22.7547261,27.8906461 L22.7341595,27.8815688 L22.7221714,27.8759288 L22.7221714,27.8759288 L22.6944722,27.8621978 L22.6613916,27.8448682 C22.4419841,27.727276 22.1594579,27.496874 21.8300836,27.1334987 C21.7013787,26.9915077 21.570925,26.8351826 21.4389348,26.6645898 L21.366789,26.5701247 L21.2943461,26.4728319 L21.2943461,26.4728319 L21.2216138,26.372714 C21.209468,26.3557924 21.1973105,26.3387532 21.1851415,26.3215964 L21.1119893,26.2172452 C21.0875598,26.1819915 21.0630852,26.1462679 21.0385668,26.1100749 L20.9648816,26.0000877 L20.8909414,25.8872862 C20.8292205,25.7921129 20.7672419,25.6940105 20.7050255,25.5929851 L20.630253,25.470352 L20.55526,25.3449152 L20.4800541,25.2166773 L20.4612202,25.1841804 L20.4612202,25.1841804 L20.3668627,25.0190732 C20.3038551,24.9075454 20.2406456,24.7931059 20.1772542,24.6757609 L20.1010985,24.5335527 C20.0883918,24.509619 20.0756781,24.4855692 20.0629576,24.4614033 L19.9865542,24.3150157 L19.9099954,24.1658447 L19.7564418,23.8591625 C19.7436228,23.8331427 19.7307982,23.8070072 19.7179682,23.7807561 L19.6409254,23.6218625 L19.6023581,23.5413759 L19.6023581,23.5413759 L19.5251365,23.3783244 C19.5122569,23.3509183 19.4993727,23.3233969 19.4864842,23.2957601 L19.4091011,23.1285561 C19.3961955,23.1004583 19.3832859,23.0722452 19.3703723,23.043917 L19.2928449,22.8725659 L19.215231,22.698453 C19.2022885,22.6692042 19.1893428,22.6398404 19.1763939,22.6103617 L19.0986644,22.4321107 C19.0727428,22.3722343 19.0468101,22.3118986 19.0208673,22.251104 C17.562743,18.8341133 16.1411668,14.1411872 14.770899,8.19399899 L14.651875,7.67369138 C14.2516076,5.91138924 13.855774,4.04164967 13.4647446,2.0650164 C16.3692078,0.738453258 19.5983664,0 23,0 Z" id="path-9"></path>
    </defs>
    <g id="Desktop-1920px" stroke="none" stroke-width="1" fill="none" fill-rule="evenodd">
        <g id="Home-(design)-1920px-slides-2" transform="translate(-879.000000, -296.000000)">
            <g id="Desktop/Hero-screen" transform="translate(-0.106944, 0.000000)">
                <g id="Group-18" transform="translate(621.106944, 296.507610)">
                    <g id="Logo" transform="translate(258.892555, 0.000000)">
                        <polygon id="Fill-1" fill="#D53D0F" points="16.9936878 55.3658905 13.6848612 55.3658905 7.08587113 62.0702911 7.08587113 55.3658905 4.48396539 55.3658905 4.48396539 70.1393679 7.08587113 70.1393679 7.08587113 65.1813745 9.21801362 63.0645037 14.1245815 70.1393679 17.3737773 70.1393679 11.0237799 61.2586061"></polygon>
                        <path d="M26.9504382,68.3164795 C24.1409627,68.3164795 22.3825369,66.1581456 22.3825369,62.711752 C22.3825369,59.3712696 24.1587154,57.1949083 26.9090153,57.1949083 C29.6711504,57.1949083 31.4354937,59.3532422 31.4354937,62.7351877 C31.4354937,66.1166825 29.6711504,68.3164795 26.9504382,68.3164795 M26.9504382,55.0131388 C22.3825369,55.0131388 19.7392082,58.4180693 19.7392082,62.7527644 C19.7392082,67.357871 22.6319848,70.49239 26.9090153,70.49239 C31.1619204,70.49239 34.0724496,67.357871 34.0724496,62.7527644 C34.0724496,58.166136 31.1619204,55.0131388 26.9504382,55.0131388" id="Fill-2" fill="#D53D0F"></path>
                        <polygon id="Fill-4" fill="#D53D0F" points="45.9540458 66.9225987 41.7839866 55.3661159 38.119196 55.3661159 38.119196 70.1395933 40.5904602 70.1395933 40.5904602 58.7476107 44.8433653 70.1395933 46.9818805 70.1395933 51.1278143 58.7476107 51.1278143 70.1395933 53.6227487 70.1395933 53.6227487 55.3661159 49.9757108 55.3661159"></polygon>
                        <path d="M65.4208163,68.0224972 L61.0609399,68.0224972 L61.0609399,63.1294025 L65.3793934,63.1294025 C67.0130952,63.1294025 67.9990518,64.0582657 67.9990518,65.6167369 C67.9990518,67.2166711 67.1378192,68.0224972 65.4208163,68.0224972 M65.5277876,61.0116303 L61.0609399,61.0116303 L61.0609399,57.6071505 L69.4247286,57.6071505 L69.4247286,55.3663412 L58.4412815,55.3663412 L58.4412815,70.1393679 L65.5277876,70.1393679 C68.7710658,70.1393679 70.6187102,68.4812952 70.6187102,65.5522888 C70.6187102,62.6467181 68.794736,61.0116303 65.5277876,61.0116303" id="Fill-6" fill="#D53D0F"></path>
                        <path d="M81.2662675,68.3160288 C78.4567919,68.3160288 76.6983661,66.1581456 76.6983661,62.7113013 C76.6983661,59.3708189 78.4745446,57.1949083 81.2248445,57.1949083 C83.9874348,57.1949083 85.7517782,59.3532422 85.7517782,62.734737 C85.7517782,66.1166825 83.9874348,68.3160288 81.2662675,68.3160288 M81.2662675,55.0131388 C76.6983661,55.0131388 74.0550374,58.4180693 74.0550374,62.7527644 C74.0550374,67.3574203 76.947814,70.49239 81.2248445,70.49239 C85.4777496,70.49239 88.3882789,67.3574203 88.3882789,62.7527644 C88.3882789,58.1656853 85.4777496,55.0131388 81.2662675,55.0131388" id="Fill-8" fill="#D53D0F"></path>
                        <path d="M97.1287885,63.9350482 C97.0040646,67.6928656 96.1842549,68.3166147 95.1149972,68.3166147 C94.9069722,68.3166147 94.402614,68.2692927 94.0871625,68.1458048 L94.0871625,70.1396383 C94.467252,70.2631262 95.0735743,70.4100498 95.6612336,70.4100498 C97.800204,70.4100498 99.4926263,68.7695538 99.6651459,64.6403714 L99.9323465,57.6069703 L104.547588,57.6069703 L104.547588,70.1396383 L107.167702,70.1396383 L107.167702,55.3657102 L97.4201146,55.3657102 L97.1287885,63.9350482 Z" id="Fill-10" fill="#8E8FAE"></path>
                        <path d="M136.900302,66.2404408 L136.900302,59.0416381 C139.163541,59.2647275 140.713486,60.2823758 140.713486,62.693995 C140.713486,65.0997553 139.181293,65.9695787 136.900302,66.2404408 L136.900302,66.2404408 Z M134.280643,66.2404408 C131.993734,65.9695787 130.467003,65.0997553 130.467003,62.693995 C130.467003,60.2823758 132.016949,59.2647275 134.280643,59.0416381 L134.280643,66.2404408 Z M136.900302,56.8012794 L136.900302,55.3662961 L134.280643,55.3662961 L134.280643,56.8012794 C130.864845,56.900881 127.846889,58.9361776 127.846889,62.693995 C127.846889,66.5518646 131.096996,68.4168021 134.280643,68.4812501 L134.280643,70.1393229 L136.900302,70.1393229 L136.900302,68.4812501 C140.108074,68.4168021 143.333145,66.5518646 143.333145,62.693995 C143.333145,58.9361776 140.380737,56.9247673 136.900302,56.8012794 L136.900302,56.8012794 Z" id="Fill-12" fill="#8E8FAE"></path>
                        <polygon id="Fill-14" fill="#8E8FAE" points="114.481397 66.6933349 114.481397 55.3662511 111.861738 55.3662511 111.861738 70.1392778 114.896992 70.1392778 121.312082 58.8126447 121.312082 70.1392778 123.931741 70.1392778 123.931741 55.3662511 120.89057 55.3662511"></polygon>
                        <polygon id="Fill-16" fill="#8E8FAE" points="145.870868 55.3658905 145.870868 57.6071505 150.629041 57.6071505 150.629041 70.1393679 153.242327 70.1393679 153.242327 57.6071505 158.000501 57.6071505 158.000501 55.3658905"></polygon>
                        <g id="Group-20" transform="translate(11.537105, 2.492390)">
                            <mask id="mask-2" fill="white">
                                <use xlink:href="#path-1"></use>
                            </mask>
                            <g id="Clip-19"></g>
                            <polygon id="Fill-18" fill="#51DCF1" mask="url(#mask-2)" points="0.228 46.5075649 0.228 46.5075649 0.228 -4.50685705e-05"></polygon>
                        </g>
                        <mask id="mask-4" fill="white">
                            <use xlink:href="#path-3"></use>
                        </mask>
                        <g id="Clip-22"></g>
                        <g id="Group-17" mask="url(#mask-4)">
                            <g transform="translate(2.000501, 1.492390)">
                                <mask id="mask-6" fill="white">
                                    <use xlink:href="#path-5"></use>
                                </mask>
                                <use id="Mask" stroke="none" fill="#D8D8D8" fill-rule="evenodd" opacity="0.702784339" xlink:href="#path-5"></use>
                                <g id="Group-17" stroke="none" stroke-width="1" fill="none" fill-rule="evenodd" mask="url(#mask-6)">
                                    <g transform="translate(-1.964081, -2.446809)">
                                        <polygon id="Fill-21" fill="#A72F1C" points="-1.53550337e-13 50.4987021 16.7543587 50.4987021 16.7543587 -1.70379077e-13 -1.53550337e-13 -1.70379077e-13"></polygon>
                                        <polygon id="Fill-24" fill="#C55240" points="16.023538 50.4987021 32.7778966 50.4987021 32.7778966 -1.70379077e-13 16.023538 -1.70379077e-13"></polygon>
                                        <polygon id="Fill-26" fill="#E17464" points="32.0475671 50.4987021 48.8019257 50.4987021 48.8019257 -1.70379077e-13 32.0475671 -1.70379077e-13"></polygon>
                                    </g>
                                </g>
                            </g>
                        </g>
                        <polygon id="Fill-23" fill="#FFB08D" mask="url(#mask-4)" points="26.6155043 48.9999549 26.6155043 48.9999549 26.6155043 2.49234497"></polygon>
                        <polygon id="Fill-25" fill="#E8908E" mask="url(#mask-4)" points="41.4667598 48.9999549 41.4667598 48.9999549 41.4667598 2.49234497"></polygon>
                        <g id="Group-12" mask="url(#mask-4)">
                            <g transform="translate(57.000501, 1.492390)">
                                <mask id="mask-8" fill="white">
                                    <use xlink:href="#path-7"></use>
                                </mask>
                                <use id="Mask" stroke="none" fill="#D8D8D8" fill-rule="evenodd" opacity="0.702784339" xlink:href="#path-7"></use>
                                <g id="Group-12" stroke="none" stroke-width="1" fill="none" fill-rule="evenodd" mask="url(#mask-8)">
                                    <g transform="translate(-1.928718, -2.446809)">
                                        <polygon id="Fill-27" fill="#7E0205" points="-9.77138508e-14 50.4987021 18.0485203 50.4987021 18.0485203 -1.70379077e-13 -9.77138508e-14 -1.70379077e-13"></polygon>
                                        <polygon id="Fill-28" fill="#D53D0F" points="17.2617093 50.4987021 35.3102296 50.4987021 35.3102296 -1.70379077e-13 17.2617093 -1.70379077e-13"></polygon>
                                        <polygon id="Fill-30" fill="#FA8745" points="34.5229274 50.4987021 52.5714477 50.4987021 52.5714477 -1.70379077e-13 34.5229274 -1.70379077e-13"></polygon>
                                    </g>
                                </g>
                            </g>
                        </g>
                        <polygon id="Fill-29" fill="#CF5149" mask="url(#mask-4)" points="98.5623858 48.9999549 98.5623858 48.9999549 98.5623858 2.49234497"></polygon>
                        <g id="Group-19" mask="url(#mask-4)">
                            <g transform="translate(111.000501, 1.492390)">
                                <mask id="mask-10" fill="white">
                                    <use xlink:href="#path-9"></use>
                                </mask>
                                <use id="Mask" stroke="none" fill="#D8D8D8" fill-rule="evenodd" xlink:href="#path-9"></use>
                                <g id="Group-19" stroke="none" stroke-width="1" fill="none" fill-rule="evenodd" mask="url(#mask-10)">
                                    <g transform="translate(-2.477816, -2.446857)">
                                        <polygon id="Fill-31" fill="#A61804" points="8.54524843 50.4987021 8.54524843 50.4987021 8.54524843 -1.06052283e-12"></polygon>
                                        <polygon id="Fill-32" fill="#751103" points="-5.58364862e-14 50.4987511 17.0907916 50.4987511 17.0907916 4.89361688e-05 -5.58364862e-14 4.89361688e-05"></polygon>
                                        <polygon id="Fill-33" fill="#5D0D02" points="24.8910744 50.4987021 24.8910744 50.4987021 24.8910744 -1.06052283e-12"></polygon>
                                        <polygon id="Fill-34" fill="#A72F1C" points="16.3452366 50.4987511 33.4365193 50.4987511 33.4365193 4.89361688e-05 16.3452366 4.89361688e-05"></polygon>
                                        <polygon id="Fill-35" fill="#FC0000" points="41.2369495 50.4987021 41.2369495 50.4987021 41.2369495 -1.06052283e-12"></polygon>
                                        <polygon id="Fill-36" fill="#C55240" points="32.6914555 50.4987511 49.782247 50.4987511 49.782247 4.89361688e-05 32.6914555 4.89361688e-05"></polygon>
                                    </g>
                                </g>
                            </g>
                        </g>
                    </g>
                </g>
            </g>
        </g>
    </g>
</svg>