<?xml version="1.0" encoding="UTF-8"?>
<svg width="40px" height="40px" viewBox="0 0 40 40" version="1.1" xmlns="http://www.w3.org/2000/svg" xmlns:xlink="http://www.w3.org/1999/xlink">
    <title>1E96258F-A5B2-4345-9E40-B55884C343BA</title>
    <g id="Desktop-1920px" stroke="none" stroke-width="1" fill="none" fill-rule="evenodd">
        <g id="Home-(design)-1920px-slides-2" transform="translate(-1436.000000, -9975.000000)">
            <g id="Group-41" transform="translate(0.000000, 9821.000000)">
                <g id="Social-icons" transform="translate(1388.000000, 154.000000)">
                    <g id="vk" transform="translate(48.000000, 0.000000)">
                        <rect id="Rectangle-Copy-21" fill="#4C6C91" x="0" y="0" width="40" height="40"></rect>
                        <path d="M20.4317885,25.9540235 C20.4317885,25.9540235 20.7746968,25.9153584 20.9503327,25.7239188 C21.1111,25.5485111 21.1055243,25.2174998 21.1055243,25.2174998 C21.1055243,25.2174998 21.0841506,23.6718374 21.7913408,23.4436188 C22.4883089,23.2191724 23.3832158,24.9383564 24.3329509,25.5994359 C25.0503633,26.0992535 25.5949277,25.9898595 25.5949277,25.9898595 L28.1328206,25.9540235 C28.1328206,25.9540235 29.4598478,25.8710349 28.830718,24.8119874 C28.7786777,24.7252266 28.4636481,24.0283111 26.9442578,22.5967581 C25.3523828,21.0982483 25.5661197,21.3406127 27.4823171,18.7481625 C28.6495063,17.1694933 29.1160102,16.205694 28.9701116,15.7935803 C28.8316473,15.3993845 27.9729826,15.5040633 27.9729826,15.5040633 L25.116343,15.5219813 C25.116343,15.5219813 24.9044647,15.4927466 24.7474146,15.5879949 C24.5940816,15.6813571 24.4946475,15.8992021 24.4946475,15.8992021 C24.4946475,15.8992021 24.0430122,17.1204546 23.4399025,18.159698 C22.1677036,20.351351 21.6593815,20.4673464 21.4512204,20.3315469 C20.96706,20.0137384 21.0878678,19.0565405 21.0878678,18.3765999 C21.0878678,16.2519036 21.4056852,15.3663777 20.4698894,15.137216 C20.1595063,15.0608288 19.9309008,15.010847 19.1363573,15.0023595 C18.1169254,14.991986 17.2545436,15.0061318 16.7657367,15.2484961 C16.4404849,15.4097581 16.1895764,15.770004 16.3429094,15.7907511 C16.5315554,15.8162135 16.9590291,15.9076896 17.1857761,16.2207829 C17.4785026,16.6253522 17.4682804,17.5325683 17.4682804,17.5325683 C17.4682804,17.5325683 17.6364821,20.0335425 17.0751905,20.3438066 C16.6904641,20.5569364 16.162627,20.1221894 15.027963,18.1332925 C14.4471563,17.1147962 14.0085311,15.988792 14.0085311,15.988792 C14.0085311,15.988792 13.9239657,15.7784914 13.7724913,15.6653252 C13.589421,15.5285826 13.3338661,15.4861453 13.3338661,15.4861453 L10.6194079,15.5040633 C10.6194079,15.5040633 10.2114493,15.5153799 10.0618335,15.6955028 C9.9289449,15.8548786 10.0516113,16.1858899 10.0516113,16.1858899 C10.0516113,16.1858899 12.1768991,21.2321617 14.5837621,23.7755732 C16.7908275,26.106798 19.2961953,25.9540235 19.2961953,25.9540235 L20.4317885,25.9540235 Z" id="Shape" fill="#FFFFFF"></path>
                    </g>
                </g>
            </g>
        </g>
    </g>
</svg>