<?xml version="1.0" encoding="UTF-8"?>
<svg width="40px" height="40px" viewBox="0 0 40 40" version="1.1" xmlns="http://www.w3.org/2000/svg" xmlns:xlink="http://www.w3.org/1999/xlink">
    <title>B3458102-C66F-4E31-B6CA-4FFC4B9E1F81</title>
    <g id="Desktop-1920px" stroke="none" stroke-width="1" fill="none" fill-rule="evenodd">
        <g id="Home-(design)-1920px-slides-2" transform="translate(-1484.000000, -9975.000000)">
            <g id="Group-41" transform="translate(0.000000, 9821.000000)">
                <g id="Social-icons" transform="translate(1388.000000, 154.000000)">
                    <g id="youtube" transform="translate(96.000000, 0.000000)">
                        <rect id="Rectangle-Copy-19" fill="#FF0000" x="0" y="0" width="40" height="40"></rect>
                        <path d="M19.5954683,12.9987655 C19.6162874,12.9988243 19.6403325,12.9989027 19.6674411,12.9990072 L19.9897453,13.0008295 C20.6501494,13.0056301 21.890136,13.0207179 23.1611621,13.0681365 L23.6699277,13.0888805 C25.0241159,13.1490746 26.3304041,13.2493983 26.9230644,13.4166043 C27.7406498,13.6466143 28.3845265,14.3243362 28.6030387,15.1849822 C28.9736457,16.640816 28.9983529,19.5729712 29,19.9574548 L29,20.0413093 C28.9983529,20.4257803 28.9736457,23.3578441 28.6030387,24.8137833 C28.3845265,25.6744293 27.7406498,26.3521512 26.9230644,26.5822741 C26.3674454,26.7389874 25.1846143,26.8369333 23.9231142,26.8981494 L23.4156187,26.9207292 C21.7186497,26.9898136 20.0118496,26.9988247 19.5954683,27 L19.4037083,27 C18.6334024,26.9978256 13.4466311,26.9688336 12.0760043,26.5822741 C11.258419,26.3521512 10.6145422,25.6744293 10.39603,24.8137833 C10.0652209,23.5138376 10.010086,21.0371343 10.0008969,20.2476762 L10.0008969,19.7510815 C10.010086,18.9615998 10.0652209,16.4848338 10.39603,15.1849822 C10.6145422,14.3243362 11.258419,13.6466143 12.0760043,13.4166043 C12.6687078,13.2493983 13.9750219,13.1490746 15.3292256,13.0888805 L15.8379966,13.0681365 C17.1090349,13.0207179 18.3490254,13.0056301 19.0094308,13.0008295 L19.3317355,12.9990072 C19.3588441,12.9989027 19.3828893,12.9988243 19.4037083,12.9987655 Z M17.7182391,17.2599418 L17.7182391,23.3475884 L22.4685038,20.3038814 L17.7182391,17.2599418 Z" id="Combined-Shape" fill="#FFFFFF"></path>
                    </g>
                </g>
            </g>
        </g>
    </g>
</svg>